<mxfile host="app.diagrams.net" modified="2023-09-25T23:22:06.604Z" agent="Mozilla/5.0 (Windows NT 10.0; Win64; x64) AppleWebKit/537.36 (KHTML, like Gecko) Chrome/114.0.0.0 Safari/537.36" etag="5W2XMcNZeK1S3a03VmRh" version="21.8.2" type="device" pages="5">
  <diagram name="Libs" id="HF0jTBQBWBX7u5PQp1cr">
    <mxGraphModel dx="1450" dy="921" grid="1" gridSize="10" guides="1" tooltips="1" connect="1" arrows="1" fold="1" page="0" pageScale="1" pageWidth="827" pageHeight="1169" math="0" shadow="0">
      <root>
        <mxCell id="0" />
        <mxCell id="1" parent="0" />
        <mxCell id="_iqMdr7dG6wilholXyh0-1" value="PEMaths&lt;br&gt;" style="rounded=0;whiteSpace=wrap;html=1;" parent="1" vertex="1">
          <mxGeometry x="400" y="170" width="120" height="50" as="geometry" />
        </mxCell>
        <mxCell id="_iqMdr7dG6wilholXyh0-23" style="edgeStyle=orthogonalEdgeStyle;shape=connector;rounded=0;orthogonalLoop=1;jettySize=auto;html=1;labelBackgroundColor=default;strokeColor=#FF0000;fontFamily=Helvetica;fontSize=11;fontColor=default;endArrow=classic;" parent="1" source="_iqMdr7dG6wilholXyh0-2" target="_iqMdr7dG6wilholXyh0-1" edge="1">
          <mxGeometry relative="1" as="geometry" />
        </mxCell>
        <mxCell id="-c8HOyiwt4_Ecr163hgo-5" style="edgeStyle=orthogonalEdgeStyle;rounded=0;orthogonalLoop=1;jettySize=auto;html=1;strokeColor=#FF0000;" parent="1" source="_iqMdr7dG6wilholXyh0-2" target="fQE1JslxshCsw7BukdwW-1" edge="1">
          <mxGeometry relative="1" as="geometry" />
        </mxCell>
        <mxCell id="_iqMdr7dG6wilholXyh0-2" value="PEPhysics" style="rounded=0;whiteSpace=wrap;html=1;" parent="1" vertex="1">
          <mxGeometry x="330" y="-50" width="120" height="60" as="geometry" />
        </mxCell>
        <mxCell id="_iqMdr7dG6wilholXyh0-4" value="Vulkan" style="shape=process;whiteSpace=wrap;html=1;backgroundOutline=1;" parent="1" vertex="1">
          <mxGeometry x="-40" y="210" width="120" height="60" as="geometry" />
        </mxCell>
        <mxCell id="_iqMdr7dG6wilholXyh0-18" style="edgeStyle=orthogonalEdgeStyle;shape=connector;rounded=0;orthogonalLoop=1;jettySize=auto;html=1;labelBackgroundColor=default;strokeColor=#FF0000;fontFamily=Helvetica;fontSize=11;fontColor=default;endArrow=classic;" parent="1" target="_iqMdr7dG6wilholXyh0-4" edge="1">
          <mxGeometry relative="1" as="geometry">
            <mxPoint x="110" y="240.0588235294117" as="sourcePoint" />
          </mxGeometry>
        </mxCell>
        <mxCell id="_iqMdr7dG6wilholXyh0-5" value="GLFW" style="shape=process;whiteSpace=wrap;html=1;backgroundOutline=1;" parent="1" vertex="1">
          <mxGeometry x="100" y="210" width="120" height="60" as="geometry" />
        </mxCell>
        <mxCell id="_iqMdr7dG6wilholXyh0-8" style="edgeStyle=orthogonalEdgeStyle;rounded=0;orthogonalLoop=1;jettySize=auto;html=1;strokeColor=#FF0000;" parent="1" source="_iqMdr7dG6wilholXyh0-6" target="_iqMdr7dG6wilholXyh0-4" edge="1">
          <mxGeometry relative="1" as="geometry">
            <Array as="points">
              <mxPoint x="100" y="150" />
              <mxPoint x="30" y="150" />
            </Array>
          </mxGeometry>
        </mxCell>
        <mxCell id="_iqMdr7dG6wilholXyh0-17" style="edgeStyle=orthogonalEdgeStyle;shape=connector;rounded=0;orthogonalLoop=1;jettySize=auto;html=1;labelBackgroundColor=default;strokeColor=#FF0000;fontFamily=Helvetica;fontSize=11;fontColor=default;endArrow=classic;" parent="1" source="_iqMdr7dG6wilholXyh0-6" edge="1">
          <mxGeometry relative="1" as="geometry">
            <Array as="points">
              <mxPoint x="100" y="150" />
              <mxPoint x="170" y="150" />
            </Array>
            <mxPoint x="170.0588235294117" y="210" as="targetPoint" />
          </mxGeometry>
        </mxCell>
        <mxCell id="_iqMdr7dG6wilholXyh0-6" value="ImGUI" style="shape=process;whiteSpace=wrap;html=1;backgroundOutline=1;" parent="1" vertex="1">
          <mxGeometry x="40" y="50" width="120" height="60" as="geometry" />
        </mxCell>
        <mxCell id="_iqMdr7dG6wilholXyh0-21" style="edgeStyle=orthogonalEdgeStyle;shape=connector;rounded=0;orthogonalLoop=1;jettySize=auto;html=1;labelBackgroundColor=default;strokeColor=#FF0000;fontFamily=Helvetica;fontSize=11;fontColor=default;endArrow=classic;" parent="1" source="_iqMdr7dG6wilholXyh0-20" target="_iqMdr7dG6wilholXyh0-6" edge="1">
          <mxGeometry relative="1" as="geometry" />
        </mxCell>
        <mxCell id="_iqMdr7dG6wilholXyh0-22" style="edgeStyle=orthogonalEdgeStyle;shape=connector;rounded=0;orthogonalLoop=1;jettySize=auto;html=1;labelBackgroundColor=default;strokeColor=#FF0000;fontFamily=Helvetica;fontSize=11;fontColor=default;endArrow=classic;" parent="1" source="_iqMdr7dG6wilholXyh0-20" target="_iqMdr7dG6wilholXyh0-4" edge="1">
          <mxGeometry relative="1" as="geometry">
            <Array as="points">
              <mxPoint x="100" y="30" />
              <mxPoint y="30" />
            </Array>
          </mxGeometry>
        </mxCell>
        <mxCell id="_iqMdr7dG6wilholXyh0-20" value="PERender" style="rounded=0;whiteSpace=wrap;html=1;" parent="1" vertex="1">
          <mxGeometry x="40" y="-50" width="120" height="60" as="geometry" />
        </mxCell>
        <mxCell id="_iqMdr7dG6wilholXyh0-24" value="PEAudio" style="rounded=0;whiteSpace=wrap;html=1;" parent="1" vertex="1">
          <mxGeometry x="620" y="-50" width="120" height="60" as="geometry" />
        </mxCell>
        <mxCell id="_iqMdr7dG6wilholXyh0-26" value="PEInputs" style="rounded=0;whiteSpace=wrap;html=1;" parent="1" vertex="1">
          <mxGeometry x="770" y="-50" width="120" height="60" as="geometry" />
        </mxCell>
        <mxCell id="_iqMdr7dG6wilholXyh0-27" value="PEFilesystem" style="rounded=0;whiteSpace=wrap;html=1;" parent="1" vertex="1">
          <mxGeometry x="480" y="-50" width="120" height="60" as="geometry" />
        </mxCell>
        <mxCell id="fQE1JslxshCsw7BukdwW-1" value="PeUtility" style="rounded=0;whiteSpace=wrap;html=1;" parent="1" vertex="1">
          <mxGeometry x="260" y="170" width="120" height="50" as="geometry" />
        </mxCell>
        <mxCell id="-c8HOyiwt4_Ecr163hgo-3" style="edgeStyle=orthogonalEdgeStyle;rounded=0;orthogonalLoop=1;jettySize=auto;html=1;strokeColor=#FF0000;" parent="1" source="yW11BiXkVyBQfPy5OCH9-1" target="_iqMdr7dG6wilholXyh0-20" edge="1">
          <mxGeometry relative="1" as="geometry" />
        </mxCell>
        <mxCell id="-c8HOyiwt4_Ecr163hgo-4" style="edgeStyle=orthogonalEdgeStyle;rounded=0;orthogonalLoop=1;jettySize=auto;html=1;strokeColor=#FF0000;" parent="1" source="yW11BiXkVyBQfPy5OCH9-1" target="_iqMdr7dG6wilholXyh0-2" edge="1">
          <mxGeometry relative="1" as="geometry" />
        </mxCell>
        <mxCell id="KSluPrdYLHP7m1y2yJQf-1" style="edgeStyle=orthogonalEdgeStyle;rounded=0;orthogonalLoop=1;jettySize=auto;html=1;strokeColor=#FF0000;" parent="1" source="yW11BiXkVyBQfPy5OCH9-1" target="_iqMdr7dG6wilholXyh0-27" edge="1">
          <mxGeometry relative="1" as="geometry" />
        </mxCell>
        <mxCell id="KSluPrdYLHP7m1y2yJQf-2" style="edgeStyle=orthogonalEdgeStyle;rounded=0;orthogonalLoop=1;jettySize=auto;html=1;strokeColor=#FF0000;" parent="1" source="yW11BiXkVyBQfPy5OCH9-1" target="_iqMdr7dG6wilholXyh0-24" edge="1">
          <mxGeometry relative="1" as="geometry" />
        </mxCell>
        <mxCell id="KSluPrdYLHP7m1y2yJQf-3" style="edgeStyle=orthogonalEdgeStyle;rounded=0;orthogonalLoop=1;jettySize=auto;html=1;strokeColor=#FF0000;" parent="1" source="yW11BiXkVyBQfPy5OCH9-1" target="_iqMdr7dG6wilholXyh0-26" edge="1">
          <mxGeometry relative="1" as="geometry" />
        </mxCell>
        <mxCell id="yW11BiXkVyBQfPy5OCH9-1" value="PeEngineCore" style="rounded=0;whiteSpace=wrap;html=1;" parent="1" vertex="1">
          <mxGeometry x="180" y="-170" width="120" height="60" as="geometry" />
        </mxCell>
        <mxCell id="-c8HOyiwt4_Ecr163hgo-2" style="edgeStyle=orthogonalEdgeStyle;rounded=0;orthogonalLoop=1;jettySize=auto;html=1;strokeColor=#FF0000;" parent="1" source="-c8HOyiwt4_Ecr163hgo-1" target="yW11BiXkVyBQfPy5OCH9-1" edge="1">
          <mxGeometry relative="1" as="geometry" />
        </mxCell>
        <mxCell id="-c8HOyiwt4_Ecr163hgo-1" value="PeEngine" style="rounded=0;whiteSpace=wrap;html=1;" parent="1" vertex="1">
          <mxGeometry x="180" y="-270" width="120" height="60" as="geometry" />
        </mxCell>
      </root>
    </mxGraphModel>
  </diagram>
  <diagram id="RSk_-9mixZ3Vpl-oezjP" name="CES">
    <mxGraphModel dx="1450" dy="521" grid="1" gridSize="10" guides="1" tooltips="1" connect="1" arrows="1" fold="1" page="0" pageScale="1" pageWidth="827" pageHeight="1169" math="0" shadow="0">
      <root>
        <mxCell id="0" />
        <mxCell id="1" parent="0" />
        <mxCell id="7ilmiXVqQrNcksHFCFOQ-1" value="CPeObject" style="swimlane;fontStyle=0;childLayout=stackLayout;horizontal=1;startSize=26;fillColor=none;horizontalStack=0;resizeParent=1;resizeParentMax=0;resizeLast=0;collapsible=1;marginBottom=0;whiteSpace=wrap;html=1;fontFamily=Helvetica;fontSize=11;fontColor=default;" parent="1" vertex="1">
          <mxGeometry x="-145" y="30" width="140" height="52" as="geometry" />
        </mxCell>
        <mxCell id="7ilmiXVqQrNcksHFCFOQ-2" value="+ uuid: CPeUUID" style="text;strokeColor=none;fillColor=none;align=left;verticalAlign=top;spacingLeft=4;spacingRight=4;overflow=hidden;rotatable=0;points=[[0,0.5],[1,0.5]];portConstraint=eastwest;whiteSpace=wrap;html=1;fontSize=11;fontFamily=Helvetica;fontColor=default;" parent="7ilmiXVqQrNcksHFCFOQ-1" vertex="1">
          <mxGeometry y="26" width="140" height="26" as="geometry" />
        </mxCell>
        <mxCell id="tfiyiZ5mZt5yceUfCniL-1" style="edgeStyle=orthogonalEdgeStyle;rounded=0;orthogonalLoop=1;jettySize=auto;html=1;dashed=1;" parent="1" source="7ilmiXVqQrNcksHFCFOQ-5" target="7ilmiXVqQrNcksHFCFOQ-1" edge="1">
          <mxGeometry relative="1" as="geometry" />
        </mxCell>
        <mxCell id="7ilmiXVqQrNcksHFCFOQ-5" value="CPeMovable&lt;br&gt;" style="swimlane;fontStyle=0;childLayout=stackLayout;horizontal=1;startSize=26;fillColor=none;horizontalStack=0;resizeParent=1;resizeParentMax=0;resizeLast=0;collapsible=1;marginBottom=0;whiteSpace=wrap;html=1;fontFamily=Helvetica;fontSize=11;fontColor=default;" parent="1" vertex="1">
          <mxGeometry x="-160" y="180" width="170" height="52" as="geometry" />
        </mxCell>
        <mxCell id="7ilmiXVqQrNcksHFCFOQ-6" value="+ transform: CPeTransform" style="text;strokeColor=none;fillColor=none;align=left;verticalAlign=top;spacingLeft=4;spacingRight=4;overflow=hidden;rotatable=0;points=[[0,0.5],[1,0.5]];portConstraint=eastwest;whiteSpace=wrap;html=1;fontSize=11;fontFamily=Helvetica;fontColor=default;" parent="7ilmiXVqQrNcksHFCFOQ-5" vertex="1">
          <mxGeometry y="26" width="170" height="26" as="geometry" />
        </mxCell>
        <mxCell id="7ilmiXVqQrNcksHFCFOQ-7" value="CPeTransform" style="swimlane;fontStyle=0;childLayout=stackLayout;horizontal=1;startSize=26;fillColor=none;horizontalStack=0;resizeParent=1;resizeParentMax=0;resizeLast=0;collapsible=1;marginBottom=0;whiteSpace=wrap;html=1;fontFamily=Helvetica;fontSize=11;fontColor=default;" parent="1" vertex="1">
          <mxGeometry x="130" y="170" width="140" height="104" as="geometry" />
        </mxCell>
        <mxCell id="7ilmiXVqQrNcksHFCFOQ-8" value="+ position: CPeVect3" style="text;strokeColor=none;fillColor=none;align=left;verticalAlign=top;spacingLeft=4;spacingRight=4;overflow=hidden;rotatable=0;points=[[0,0.5],[1,0.5]];portConstraint=eastwest;whiteSpace=wrap;html=1;fontSize=11;fontFamily=Helvetica;fontColor=default;" parent="7ilmiXVqQrNcksHFCFOQ-7" vertex="1">
          <mxGeometry y="26" width="140" height="26" as="geometry" />
        </mxCell>
        <mxCell id="7ilmiXVqQrNcksHFCFOQ-9" value="+ orientation: CPeVect3" style="text;strokeColor=none;fillColor=none;align=left;verticalAlign=top;spacingLeft=4;spacingRight=4;overflow=hidden;rotatable=0;points=[[0,0.5],[1,0.5]];portConstraint=eastwest;whiteSpace=wrap;html=1;fontSize=11;fontFamily=Helvetica;fontColor=default;" parent="7ilmiXVqQrNcksHFCFOQ-7" vertex="1">
          <mxGeometry y="52" width="140" height="26" as="geometry" />
        </mxCell>
        <mxCell id="7ilmiXVqQrNcksHFCFOQ-10" value="+ size: CPeVect3" style="text;strokeColor=none;fillColor=none;align=left;verticalAlign=top;spacingLeft=4;spacingRight=4;overflow=hidden;rotatable=0;points=[[0,0.5],[1,0.5]];portConstraint=eastwest;whiteSpace=wrap;html=1;fontSize=11;fontFamily=Helvetica;fontColor=default;" parent="7ilmiXVqQrNcksHFCFOQ-7" vertex="1">
          <mxGeometry y="78" width="140" height="26" as="geometry" />
        </mxCell>
        <mxCell id="7ilmiXVqQrNcksHFCFOQ-11" value="CPeVect3" style="swimlane;fontStyle=0;childLayout=stackLayout;horizontal=1;startSize=26;fillColor=none;horizontalStack=0;resizeParent=1;resizeParentMax=0;resizeLast=0;collapsible=1;marginBottom=0;whiteSpace=wrap;html=1;fontFamily=Helvetica;fontSize=11;fontColor=default;" parent="1" vertex="1">
          <mxGeometry x="420" y="130" width="140" height="104" as="geometry" />
        </mxCell>
        <mxCell id="7ilmiXVqQrNcksHFCFOQ-12" value="+ x: double" style="text;strokeColor=none;fillColor=none;align=left;verticalAlign=top;spacingLeft=4;spacingRight=4;overflow=hidden;rotatable=0;points=[[0,0.5],[1,0.5]];portConstraint=eastwest;whiteSpace=wrap;html=1;fontSize=11;fontFamily=Helvetica;fontColor=default;" parent="7ilmiXVqQrNcksHFCFOQ-11" vertex="1">
          <mxGeometry y="26" width="140" height="26" as="geometry" />
        </mxCell>
        <mxCell id="7ilmiXVqQrNcksHFCFOQ-13" value="+ y: double" style="text;strokeColor=none;fillColor=none;align=left;verticalAlign=top;spacingLeft=4;spacingRight=4;overflow=hidden;rotatable=0;points=[[0,0.5],[1,0.5]];portConstraint=eastwest;whiteSpace=wrap;html=1;fontSize=11;fontFamily=Helvetica;fontColor=default;" parent="7ilmiXVqQrNcksHFCFOQ-11" vertex="1">
          <mxGeometry y="52" width="140" height="26" as="geometry" />
        </mxCell>
        <mxCell id="7ilmiXVqQrNcksHFCFOQ-14" value="+ z: double" style="text;strokeColor=none;fillColor=none;align=left;verticalAlign=top;spacingLeft=4;spacingRight=4;overflow=hidden;rotatable=0;points=[[0,0.5],[1,0.5]];portConstraint=eastwest;whiteSpace=wrap;html=1;fontSize=11;fontFamily=Helvetica;fontColor=default;" parent="7ilmiXVqQrNcksHFCFOQ-11" vertex="1">
          <mxGeometry y="78" width="140" height="26" as="geometry" />
        </mxCell>
        <mxCell id="7ilmiXVqQrNcksHFCFOQ-15" value="CPeUUID" style="swimlane;fontStyle=0;childLayout=stackLayout;horizontal=1;startSize=26;fillColor=none;horizontalStack=0;resizeParent=1;resizeParentMax=0;resizeLast=0;collapsible=1;marginBottom=0;whiteSpace=wrap;html=1;fontFamily=Helvetica;fontSize=11;fontColor=default;" parent="1" vertex="1">
          <mxGeometry x="120" y="20" width="140" height="52" as="geometry" />
        </mxCell>
        <mxCell id="7ilmiXVqQrNcksHFCFOQ-16" value="+ value: CPeUUID" style="text;strokeColor=none;fillColor=none;align=left;verticalAlign=top;spacingLeft=4;spacingRight=4;overflow=hidden;rotatable=0;points=[[0,0.5],[1,0.5]];portConstraint=eastwest;whiteSpace=wrap;html=1;fontSize=11;fontFamily=Helvetica;fontColor=default;" parent="7ilmiXVqQrNcksHFCFOQ-15" vertex="1">
          <mxGeometry y="26" width="140" height="26" as="geometry" />
        </mxCell>
        <mxCell id="tfiyiZ5mZt5yceUfCniL-2" style="edgeStyle=orthogonalEdgeStyle;rounded=0;orthogonalLoop=1;jettySize=auto;html=1;dashed=1;" parent="1" source="Xg0VS0MiNetsMhFWaZdq-1" target="7ilmiXVqQrNcksHFCFOQ-5" edge="1">
          <mxGeometry relative="1" as="geometry" />
        </mxCell>
        <mxCell id="Xg0VS0MiNetsMhFWaZdq-1" value="CPeParticle" style="swimlane;fontStyle=0;childLayout=stackLayout;horizontal=1;startSize=26;fillColor=none;horizontalStack=0;resizeParent=1;resizeParentMax=0;resizeLast=0;collapsible=1;marginBottom=0;whiteSpace=wrap;html=1;fontFamily=Helvetica;fontSize=11;fontColor=default;" parent="1" vertex="1">
          <mxGeometry x="-160" y="300" width="170" height="130" as="geometry" />
        </mxCell>
        <mxCell id="Xg0VS0MiNetsMhFWaZdq-2" value="+ gravity: double" style="text;strokeColor=none;fillColor=none;align=left;verticalAlign=top;spacingLeft=4;spacingRight=4;overflow=hidden;rotatable=0;points=[[0,0.5],[1,0.5]];portConstraint=eastwest;whiteSpace=wrap;html=1;fontSize=11;fontFamily=Helvetica;fontColor=default;" parent="Xg0VS0MiNetsMhFWaZdq-1" vertex="1">
          <mxGeometry y="26" width="170" height="26" as="geometry" />
        </mxCell>
        <mxCell id="tfiyiZ5mZt5yceUfCniL-3" value="+ velocity: Vect3" style="text;strokeColor=none;fillColor=none;align=left;verticalAlign=top;spacingLeft=4;spacingRight=4;overflow=hidden;rotatable=0;points=[[0,0.5],[1,0.5]];portConstraint=eastwest;whiteSpace=wrap;html=1;fontSize=11;fontFamily=Helvetica;fontColor=default;" parent="Xg0VS0MiNetsMhFWaZdq-1" vertex="1">
          <mxGeometry y="52" width="170" height="26" as="geometry" />
        </mxCell>
        <mxCell id="tfiyiZ5mZt5yceUfCniL-8" value="+ mass: double" style="text;strokeColor=none;fillColor=none;align=left;verticalAlign=top;spacingLeft=4;spacingRight=4;overflow=hidden;rotatable=0;points=[[0,0.5],[1,0.5]];portConstraint=eastwest;whiteSpace=wrap;html=1;fontSize=11;fontFamily=Helvetica;fontColor=default;" parent="Xg0VS0MiNetsMhFWaZdq-1" vertex="1">
          <mxGeometry y="78" width="170" height="26" as="geometry" />
        </mxCell>
        <mxCell id="tfiyiZ5mZt5yceUfCniL-7" value="+ forces: Vector&amp;lt;CPeForce*&amp;gt;" style="text;strokeColor=none;fillColor=none;align=left;verticalAlign=top;spacingLeft=4;spacingRight=4;overflow=hidden;rotatable=0;points=[[0,0.5],[1,0.5]];portConstraint=eastwest;whiteSpace=wrap;html=1;fontSize=11;fontFamily=Helvetica;fontColor=default;" parent="Xg0VS0MiNetsMhFWaZdq-1" vertex="1">
          <mxGeometry y="104" width="170" height="26" as="geometry" />
        </mxCell>
        <mxCell id="tfiyiZ5mZt5yceUfCniL-4" value="CPeForce" style="swimlane;fontStyle=0;childLayout=stackLayout;horizontal=1;startSize=26;fillColor=none;horizontalStack=0;resizeParent=1;resizeParentMax=0;resizeLast=0;collapsible=1;marginBottom=0;whiteSpace=wrap;html=1;fontFamily=Helvetica;fontSize=11;fontColor=default;" parent="1" vertex="1">
          <mxGeometry x="120" y="320" width="170" height="52" as="geometry" />
        </mxCell>
        <mxCell id="tfiyiZ5mZt5yceUfCniL-5" value="+ value: CPeVect3" style="text;strokeColor=none;fillColor=none;align=left;verticalAlign=top;spacingLeft=4;spacingRight=4;overflow=hidden;rotatable=0;points=[[0,0.5],[1,0.5]];portConstraint=eastwest;whiteSpace=wrap;html=1;fontSize=11;fontFamily=Helvetica;fontColor=default;" parent="tfiyiZ5mZt5yceUfCniL-4" vertex="1">
          <mxGeometry y="26" width="170" height="26" as="geometry" />
        </mxCell>
        <mxCell id="tfiyiZ5mZt5yceUfCniL-11" style="edgeStyle=orthogonalEdgeStyle;rounded=0;orthogonalLoop=1;jettySize=auto;html=1;dashed=1;" parent="1" source="tfiyiZ5mZt5yceUfCniL-9" target="Xg0VS0MiNetsMhFWaZdq-1" edge="1">
          <mxGeometry relative="1" as="geometry" />
        </mxCell>
        <mxCell id="tfiyiZ5mZt5yceUfCniL-9" value="CPeEntity" style="swimlane;fontStyle=0;childLayout=stackLayout;horizontal=1;startSize=26;fillColor=none;horizontalStack=0;resizeParent=1;resizeParentMax=0;resizeLast=0;collapsible=1;marginBottom=0;whiteSpace=wrap;html=1;fontFamily=Helvetica;fontSize=11;fontColor=default;" parent="1" vertex="1">
          <mxGeometry x="-160" y="500" width="170" height="78" as="geometry" />
        </mxCell>
        <mxCell id="tfiyiZ5mZt5yceUfCniL-10" value="+ mesh: CPeMesh&lt;br&gt;" style="text;strokeColor=none;fillColor=none;align=left;verticalAlign=top;spacingLeft=4;spacingRight=4;overflow=hidden;rotatable=0;points=[[0,0.5],[1,0.5]];portConstraint=eastwest;whiteSpace=wrap;html=1;fontSize=11;fontFamily=Helvetica;fontColor=default;" parent="tfiyiZ5mZt5yceUfCniL-9" vertex="1">
          <mxGeometry y="26" width="170" height="26" as="geometry" />
        </mxCell>
        <mxCell id="tfiyiZ5mZt5yceUfCniL-22" value="+ material: CPeMaterial" style="text;strokeColor=none;fillColor=none;align=left;verticalAlign=top;spacingLeft=4;spacingRight=4;overflow=hidden;rotatable=0;points=[[0,0.5],[1,0.5]];portConstraint=eastwest;whiteSpace=wrap;html=1;fontSize=11;fontFamily=Helvetica;fontColor=default;" parent="tfiyiZ5mZt5yceUfCniL-9" vertex="1">
          <mxGeometry y="52" width="170" height="26" as="geometry" />
        </mxCell>
        <mxCell id="tfiyiZ5mZt5yceUfCniL-12" value="CPeMesh" style="swimlane;fontStyle=0;childLayout=stackLayout;horizontal=1;startSize=26;fillColor=none;horizontalStack=0;resizeParent=1;resizeParentMax=0;resizeLast=0;collapsible=1;marginBottom=0;whiteSpace=wrap;html=1;fontFamily=Helvetica;fontSize=11;fontColor=default;" parent="1" vertex="1">
          <mxGeometry x="120" y="430" width="170" height="78" as="geometry" />
        </mxCell>
        <mxCell id="tfiyiZ5mZt5yceUfCniL-13" value="+ vertices: Vector&amp;lt;CPeVector3&amp;gt;" style="text;strokeColor=none;fillColor=none;align=left;verticalAlign=top;spacingLeft=4;spacingRight=4;overflow=hidden;rotatable=0;points=[[0,0.5],[1,0.5]];portConstraint=eastwest;whiteSpace=wrap;html=1;fontSize=11;fontFamily=Helvetica;fontColor=default;" parent="tfiyiZ5mZt5yceUfCniL-12" vertex="1">
          <mxGeometry y="26" width="170" height="26" as="geometry" />
        </mxCell>
        <mxCell id="tfiyiZ5mZt5yceUfCniL-16" value="+ faces: Vector&amp;lt;int&amp;gt;" style="text;strokeColor=none;fillColor=none;align=left;verticalAlign=top;spacingLeft=4;spacingRight=4;overflow=hidden;rotatable=0;points=[[0,0.5],[1,0.5]];portConstraint=eastwest;whiteSpace=wrap;html=1;fontSize=11;fontFamily=Helvetica;fontColor=default;" parent="tfiyiZ5mZt5yceUfCniL-12" vertex="1">
          <mxGeometry y="52" width="170" height="26" as="geometry" />
        </mxCell>
        <mxCell id="tfiyiZ5mZt5yceUfCniL-14" value="CPeMaterial" style="swimlane;fontStyle=0;childLayout=stackLayout;horizontal=1;startSize=26;fillColor=none;horizontalStack=0;resizeParent=1;resizeParentMax=0;resizeLast=0;collapsible=1;marginBottom=0;whiteSpace=wrap;html=1;fontFamily=Helvetica;fontSize=11;fontColor=default;" parent="1" vertex="1">
          <mxGeometry x="120" y="550" width="170" height="52" as="geometry" />
        </mxCell>
        <mxCell id="tfiyiZ5mZt5yceUfCniL-15" value="+ albedo: CPeVect4" style="text;strokeColor=none;fillColor=none;align=left;verticalAlign=top;spacingLeft=4;spacingRight=4;overflow=hidden;rotatable=0;points=[[0,0.5],[1,0.5]];portConstraint=eastwest;whiteSpace=wrap;html=1;fontSize=11;fontFamily=Helvetica;fontColor=default;" parent="tfiyiZ5mZt5yceUfCniL-14" vertex="1">
          <mxGeometry y="26" width="170" height="26" as="geometry" />
        </mxCell>
        <mxCell id="tfiyiZ5mZt5yceUfCniL-17" value="CPeVect4" style="swimlane;fontStyle=0;childLayout=stackLayout;horizontal=1;startSize=26;fillColor=none;horizontalStack=0;resizeParent=1;resizeParentMax=0;resizeLast=0;collapsible=1;marginBottom=0;whiteSpace=wrap;html=1;fontFamily=Helvetica;fontSize=11;fontColor=default;" parent="1" vertex="1">
          <mxGeometry x="420" y="274" width="140" height="130" as="geometry" />
        </mxCell>
        <mxCell id="tfiyiZ5mZt5yceUfCniL-18" value="+ x: double" style="text;strokeColor=none;fillColor=none;align=left;verticalAlign=top;spacingLeft=4;spacingRight=4;overflow=hidden;rotatable=0;points=[[0,0.5],[1,0.5]];portConstraint=eastwest;whiteSpace=wrap;html=1;fontSize=11;fontFamily=Helvetica;fontColor=default;" parent="tfiyiZ5mZt5yceUfCniL-17" vertex="1">
          <mxGeometry y="26" width="140" height="26" as="geometry" />
        </mxCell>
        <mxCell id="tfiyiZ5mZt5yceUfCniL-19" value="+ y: double" style="text;strokeColor=none;fillColor=none;align=left;verticalAlign=top;spacingLeft=4;spacingRight=4;overflow=hidden;rotatable=0;points=[[0,0.5],[1,0.5]];portConstraint=eastwest;whiteSpace=wrap;html=1;fontSize=11;fontFamily=Helvetica;fontColor=default;" parent="tfiyiZ5mZt5yceUfCniL-17" vertex="1">
          <mxGeometry y="52" width="140" height="26" as="geometry" />
        </mxCell>
        <mxCell id="tfiyiZ5mZt5yceUfCniL-20" value="+ z: double" style="text;strokeColor=none;fillColor=none;align=left;verticalAlign=top;spacingLeft=4;spacingRight=4;overflow=hidden;rotatable=0;points=[[0,0.5],[1,0.5]];portConstraint=eastwest;whiteSpace=wrap;html=1;fontSize=11;fontFamily=Helvetica;fontColor=default;" parent="tfiyiZ5mZt5yceUfCniL-17" vertex="1">
          <mxGeometry y="78" width="140" height="26" as="geometry" />
        </mxCell>
        <mxCell id="tfiyiZ5mZt5yceUfCniL-21" value="+ w: double" style="text;strokeColor=none;fillColor=none;align=left;verticalAlign=top;spacingLeft=4;spacingRight=4;overflow=hidden;rotatable=0;points=[[0,0.5],[1,0.5]];portConstraint=eastwest;whiteSpace=wrap;html=1;fontSize=11;fontFamily=Helvetica;fontColor=default;" parent="tfiyiZ5mZt5yceUfCniL-17" vertex="1">
          <mxGeometry y="104" width="140" height="26" as="geometry" />
        </mxCell>
      </root>
    </mxGraphModel>
  </diagram>
  <diagram id="Gb1aJVSodDiP2hWN87Jk" name="MemoryFrag">
    <mxGraphModel dx="1050" dy="521" grid="1" gridSize="10" guides="1" tooltips="1" connect="1" arrows="1" fold="1" page="1" pageScale="1" pageWidth="827" pageHeight="1169" math="0" shadow="0">
      <root>
        <mxCell id="0" />
        <mxCell id="1" parent="0" />
        <mxCell id="hqjyTFJYslkwFW7dRfer-8" value="" style="rounded=0;whiteSpace=wrap;html=1;fillColor=#dae8fc;strokeColor=#6c8ebf;" parent="1" vertex="1">
          <mxGeometry x="110" y="160" width="240" height="60" as="geometry" />
        </mxCell>
        <mxCell id="hqjyTFJYslkwFW7dRfer-1" value="" style="rounded=0;whiteSpace=wrap;html=1;" parent="1" vertex="1">
          <mxGeometry x="110" y="100" width="540" height="60" as="geometry" />
        </mxCell>
        <mxCell id="hqjyTFJYslkwFW7dRfer-9" value="" style="rounded=0;whiteSpace=wrap;html=1;fillColor=#e1d5e7;strokeColor=#9673a6;" parent="1" vertex="1">
          <mxGeometry x="350" y="160" width="170" height="60" as="geometry" />
        </mxCell>
        <mxCell id="hqjyTFJYslkwFW7dRfer-2" value="" style="rounded=0;whiteSpace=wrap;html=1;fillColor=#f8cecc;strokeColor=#b85450;" parent="1" vertex="1">
          <mxGeometry x="390" y="100" width="40" height="60" as="geometry" />
        </mxCell>
        <mxCell id="hqjyTFJYslkwFW7dRfer-3" value="" style="rounded=0;whiteSpace=wrap;html=1;fillColor=#d5e8d4;strokeColor=#82b366;" parent="1" vertex="1">
          <mxGeometry x="110" y="100" width="120" height="60" as="geometry" />
        </mxCell>
        <mxCell id="hqjyTFJYslkwFW7dRfer-4" value="" style="rounded=0;whiteSpace=wrap;html=1;fillColor=#d5e8d4;strokeColor=#82b366;" parent="1" vertex="1">
          <mxGeometry x="230" y="100" width="120" height="60" as="geometry" />
        </mxCell>
        <mxCell id="hqjyTFJYslkwFW7dRfer-5" value="" style="rounded=0;whiteSpace=wrap;html=1;fillColor=#f8cecc;strokeColor=#b85450;" parent="1" vertex="1">
          <mxGeometry x="130" y="310" width="40" height="60" as="geometry" />
        </mxCell>
        <mxCell id="hqjyTFJYslkwFW7dRfer-6" value="" style="rounded=0;whiteSpace=wrap;html=1;fillColor=#f8cecc;strokeColor=#b85450;" parent="1" vertex="1">
          <mxGeometry x="430" y="100" width="40" height="60" as="geometry" />
        </mxCell>
        <mxCell id="hqjyTFJYslkwFW7dRfer-7" value="" style="rounded=0;whiteSpace=wrap;html=1;fillColor=#f8cecc;strokeColor=#b85450;" parent="1" vertex="1">
          <mxGeometry x="350" y="100" width="40" height="60" as="geometry" />
        </mxCell>
      </root>
    </mxGraphModel>
  </diagram>
  <diagram id="krzlIIU1ifaDEWTMsdQP" name="EngineLogic">
    <mxGraphModel dx="2374" dy="1144" grid="1" gridSize="10" guides="1" tooltips="1" connect="1" arrows="1" fold="1" page="0" pageScale="1" pageWidth="827" pageHeight="1169" math="0" shadow="0">
      <root>
        <mxCell id="0" />
        <mxCell id="1" parent="0" />
        <mxCell id="5dr3lmMBL9AklAWz7nSf-1" value="CPeGameMode" style="swimlane;fontStyle=1;align=center;verticalAlign=top;childLayout=stackLayout;horizontal=1;startSize=26;horizontalStack=0;resizeParent=1;resizeParentMax=0;resizeLast=0;collapsible=1;marginBottom=0;whiteSpace=wrap;html=1;" vertex="1" parent="1">
          <mxGeometry x="420" y="-120" width="160" height="164" as="geometry" />
        </mxCell>
        <mxCell id="5dr3lmMBL9AklAWz7nSf-2" value="+ m_camera: CPeCamera*" style="text;strokeColor=none;fillColor=none;align=left;verticalAlign=top;spacingLeft=4;spacingRight=4;overflow=hidden;rotatable=0;points=[[0,0.5],[1,0.5]];portConstraint=eastwest;whiteSpace=wrap;html=1;" vertex="1" parent="5dr3lmMBL9AklAWz7nSf-1">
          <mxGeometry y="26" width="160" height="26" as="geometry" />
        </mxCell>
        <mxCell id="5dr3lmMBL9AklAWz7nSf-6" value="..." style="text;strokeColor=none;fillColor=none;align=left;verticalAlign=top;spacingLeft=4;spacingRight=4;overflow=hidden;rotatable=0;points=[[0,0.5],[1,0.5]];portConstraint=eastwest;whiteSpace=wrap;html=1;" vertex="1" parent="5dr3lmMBL9AklAWz7nSf-1">
          <mxGeometry y="52" width="160" height="26" as="geometry" />
        </mxCell>
        <mxCell id="5dr3lmMBL9AklAWz7nSf-3" value="" style="line;strokeWidth=1;fillColor=none;align=left;verticalAlign=middle;spacingTop=-1;spacingLeft=3;spacingRight=3;rotatable=0;labelPosition=right;points=[];portConstraint=eastwest;strokeColor=inherit;" vertex="1" parent="5dr3lmMBL9AklAWz7nSf-1">
          <mxGeometry y="78" width="160" height="8" as="geometry" />
        </mxCell>
        <mxCell id="5dr3lmMBL9AklAWz7nSf-4" value="+ GameStart():&amp;nbsp;" style="text;strokeColor=none;fillColor=none;align=left;verticalAlign=top;spacingLeft=4;spacingRight=4;overflow=hidden;rotatable=0;points=[[0,0.5],[1,0.5]];portConstraint=eastwest;whiteSpace=wrap;html=1;" vertex="1" parent="5dr3lmMBL9AklAWz7nSf-1">
          <mxGeometry y="86" width="160" height="26" as="geometry" />
        </mxCell>
        <mxCell id="5dr3lmMBL9AklAWz7nSf-23" value="+ GameUpdate():&amp;nbsp;" style="text;strokeColor=none;fillColor=none;align=left;verticalAlign=top;spacingLeft=4;spacingRight=4;overflow=hidden;rotatable=0;points=[[0,0.5],[1,0.5]];portConstraint=eastwest;whiteSpace=wrap;html=1;" vertex="1" parent="5dr3lmMBL9AklAWz7nSf-1">
          <mxGeometry y="112" width="160" height="26" as="geometry" />
        </mxCell>
        <mxCell id="5dr3lmMBL9AklAWz7nSf-24" value="+ GameEnd():&amp;nbsp;" style="text;strokeColor=none;fillColor=none;align=left;verticalAlign=top;spacingLeft=4;spacingRight=4;overflow=hidden;rotatable=0;points=[[0,0.5],[1,0.5]];portConstraint=eastwest;whiteSpace=wrap;html=1;" vertex="1" parent="5dr3lmMBL9AklAWz7nSf-1">
          <mxGeometry y="138" width="160" height="26" as="geometry" />
        </mxCell>
        <mxCell id="5dr3lmMBL9AklAWz7nSf-13" style="edgeStyle=orthogonalEdgeStyle;rounded=0;orthogonalLoop=1;jettySize=auto;html=1;strokeColor=#007FFF;dashed=1;" edge="1" parent="1" source="5dr3lmMBL9AklAWz7nSf-5" target="5dr3lmMBL9AklAWz7nSf-1">
          <mxGeometry relative="1" as="geometry" />
        </mxCell>
        <mxCell id="5dr3lmMBL9AklAWz7nSf-5" value="Custom Game mode" style="html=1;whiteSpace=wrap;" vertex="1" parent="1">
          <mxGeometry x="445" y="90" width="110" height="50" as="geometry" />
        </mxCell>
        <mxCell id="5dr3lmMBL9AklAWz7nSf-7" value="CPeGameManager" style="swimlane;fontStyle=1;align=center;verticalAlign=top;childLayout=stackLayout;horizontal=1;startSize=26;horizontalStack=0;resizeParent=1;resizeParentMax=0;resizeLast=0;collapsible=1;marginBottom=0;whiteSpace=wrap;html=1;" vertex="1" parent="1">
          <mxGeometry x="-20" y="-120" width="250" height="190" as="geometry" />
        </mxCell>
        <mxCell id="5dr3lmMBL9AklAWz7nSf-8" value="+ m_gameMode: CPeGameMode*" style="text;strokeColor=none;fillColor=none;align=left;verticalAlign=top;spacingLeft=4;spacingRight=4;overflow=hidden;rotatable=0;points=[[0,0.5],[1,0.5]];portConstraint=eastwest;whiteSpace=wrap;html=1;" vertex="1" parent="5dr3lmMBL9AklAWz7nSf-7">
          <mxGeometry y="26" width="250" height="26" as="geometry" />
        </mxCell>
        <mxCell id="5dr3lmMBL9AklAWz7nSf-19" value="+ m_physicManager: CPePhysicManager*" style="text;strokeColor=none;fillColor=none;align=left;verticalAlign=top;spacingLeft=4;spacingRight=4;overflow=hidden;rotatable=0;points=[[0,0.5],[1,0.5]];portConstraint=eastwest;whiteSpace=wrap;html=1;" vertex="1" parent="5dr3lmMBL9AklAWz7nSf-7">
          <mxGeometry y="52" width="250" height="26" as="geometry" />
        </mxCell>
        <mxCell id="5dr3lmMBL9AklAWz7nSf-21" value="+ m_renderer: CPeRenderer*" style="text;strokeColor=none;fillColor=none;align=left;verticalAlign=top;spacingLeft=4;spacingRight=4;overflow=hidden;rotatable=0;points=[[0,0.5],[1,0.5]];portConstraint=eastwest;whiteSpace=wrap;html=1;" vertex="1" parent="5dr3lmMBL9AklAWz7nSf-7">
          <mxGeometry y="78" width="250" height="26" as="geometry" />
        </mxCell>
        <mxCell id="5dr3lmMBL9AklAWz7nSf-9" value="..." style="text;strokeColor=none;fillColor=none;align=left;verticalAlign=top;spacingLeft=4;spacingRight=4;overflow=hidden;rotatable=0;points=[[0,0.5],[1,0.5]];portConstraint=eastwest;whiteSpace=wrap;html=1;" vertex="1" parent="5dr3lmMBL9AklAWz7nSf-7">
          <mxGeometry y="104" width="250" height="26" as="geometry" />
        </mxCell>
        <mxCell id="5dr3lmMBL9AklAWz7nSf-10" value="" style="line;strokeWidth=1;fillColor=none;align=left;verticalAlign=middle;spacingTop=-1;spacingLeft=3;spacingRight=3;rotatable=0;labelPosition=right;points=[];portConstraint=eastwest;strokeColor=inherit;" vertex="1" parent="5dr3lmMBL9AklAWz7nSf-7">
          <mxGeometry y="130" width="250" height="8" as="geometry" />
        </mxCell>
        <mxCell id="5dr3lmMBL9AklAWz7nSf-11" value="+ SetGameMode(CPeGameMode*):&amp;nbsp;" style="text;strokeColor=none;fillColor=none;align=left;verticalAlign=top;spacingLeft=4;spacingRight=4;overflow=hidden;rotatable=0;points=[[0,0.5],[1,0.5]];portConstraint=eastwest;whiteSpace=wrap;html=1;" vertex="1" parent="5dr3lmMBL9AklAWz7nSf-7">
          <mxGeometry y="138" width="250" height="26" as="geometry" />
        </mxCell>
        <mxCell id="5dr3lmMBL9AklAWz7nSf-12" value="+ StartGame():&amp;nbsp;" style="text;strokeColor=none;fillColor=none;align=left;verticalAlign=top;spacingLeft=4;spacingRight=4;overflow=hidden;rotatable=0;points=[[0,0.5],[1,0.5]];portConstraint=eastwest;whiteSpace=wrap;html=1;" vertex="1" parent="5dr3lmMBL9AklAWz7nSf-7">
          <mxGeometry y="164" width="250" height="26" as="geometry" />
        </mxCell>
        <mxCell id="5dr3lmMBL9AklAWz7nSf-15" value="StartGame()" style="swimlane;whiteSpace=wrap;html=1;" vertex="1" parent="1">
          <mxGeometry x="-430" y="-120" width="380" height="440" as="geometry" />
        </mxCell>
        <mxCell id="5dr3lmMBL9AklAWz7nSf-16" value="m_renderer.SetupRender()" style="shape=process;whiteSpace=wrap;html=1;backgroundOutline=1;" vertex="1" parent="5dr3lmMBL9AklAWz7nSf-15">
          <mxGeometry x="40" y="60" width="260" height="20" as="geometry" />
        </mxCell>
        <mxCell id="5dr3lmMBL9AklAWz7nSf-17" value="m_renderer.RenderCleanup()" style="shape=process;whiteSpace=wrap;html=1;backgroundOutline=1;" vertex="1" parent="5dr3lmMBL9AklAWz7nSf-15">
          <mxGeometry x="40" y="380" width="260" height="20" as="geometry" />
        </mxCell>
        <mxCell id="5dr3lmMBL9AklAWz7nSf-18" value="m_renderer.BeginFrame()" style="shape=process;whiteSpace=wrap;html=1;backgroundOutline=1;" vertex="1" parent="5dr3lmMBL9AklAWz7nSf-15">
          <mxGeometry x="80" y="160" width="260" height="20" as="geometry" />
        </mxCell>
        <mxCell id="5dr3lmMBL9AklAWz7nSf-20" value="m_gameMode.GameUpdate()" style="shape=process;whiteSpace=wrap;html=1;backgroundOutline=1;" vertex="1" parent="5dr3lmMBL9AklAWz7nSf-15">
          <mxGeometry x="80" y="200" width="260" height="20" as="geometry" />
        </mxCell>
        <mxCell id="5dr3lmMBL9AklAWz7nSf-22" value="m_renderer.RenderFrame()" style="shape=process;whiteSpace=wrap;html=1;backgroundOutline=1;" vertex="1" parent="5dr3lmMBL9AklAWz7nSf-15">
          <mxGeometry x="80" y="280" width="260" height="20" as="geometry" />
        </mxCell>
        <mxCell id="5dr3lmMBL9AklAWz7nSf-31" value="m_physicsManager.PhysicsUpdate()" style="shape=process;whiteSpace=wrap;html=1;backgroundOutline=1;" vertex="1" parent="5dr3lmMBL9AklAWz7nSf-15">
          <mxGeometry x="80" y="240" width="260" height="20" as="geometry" />
        </mxCell>
        <mxCell id="5dr3lmMBL9AklAWz7nSf-32" value="m_gameMode.GameStart()" style="shape=process;whiteSpace=wrap;html=1;backgroundOutline=1;" vertex="1" parent="5dr3lmMBL9AklAWz7nSf-15">
          <mxGeometry x="40" y="100" width="260" height="20" as="geometry" />
        </mxCell>
        <mxCell id="5dr3lmMBL9AklAWz7nSf-33" value="m_gameMode.GameEnd()" style="shape=process;whiteSpace=wrap;html=1;backgroundOutline=1;" vertex="1" parent="5dr3lmMBL9AklAWz7nSf-15">
          <mxGeometry x="40" y="340" width="260" height="20" as="geometry" />
        </mxCell>
        <mxCell id="5dr3lmMBL9AklAWz7nSf-34" value="" style="shape=curlyBracket;whiteSpace=wrap;html=1;rounded=1;labelPosition=left;verticalLabelPosition=middle;align=right;verticalAlign=middle;" vertex="1" parent="5dr3lmMBL9AklAWz7nSf-15">
          <mxGeometry x="60" y="150" width="20" height="160" as="geometry" />
        </mxCell>
        <mxCell id="5dr3lmMBL9AklAWz7nSf-35" value="While()" style="text;html=1;strokeColor=none;fillColor=none;align=center;verticalAlign=middle;whiteSpace=wrap;rounded=0;" vertex="1" parent="5dr3lmMBL9AklAWz7nSf-15">
          <mxGeometry x="10" y="215" width="60" height="30" as="geometry" />
        </mxCell>
        <mxCell id="5dr3lmMBL9AklAWz7nSf-44" style="edgeStyle=orthogonalEdgeStyle;rounded=0;orthogonalLoop=1;jettySize=auto;html=1;strokeColor=#FF0000;endArrow=oval;endFill=1;" edge="1" parent="1" source="5dr3lmMBL9AklAWz7nSf-8" target="5dr3lmMBL9AklAWz7nSf-1">
          <mxGeometry relative="1" as="geometry">
            <Array as="points">
              <mxPoint x="325" y="-81" />
              <mxPoint x="325" y="-110" />
            </Array>
          </mxGeometry>
        </mxCell>
        <mxCell id="5dr3lmMBL9AklAWz7nSf-45" value="main()" style="swimlane;whiteSpace=wrap;html=1;" vertex="1" parent="1">
          <mxGeometry x="410" y="170" width="590" height="140" as="geometry" />
        </mxCell>
        <mxCell id="5dr3lmMBL9AklAWz7nSf-46" value="CpeGameManager.GetInstance().SetGameMode(CustomGameMode)" style="shape=process;whiteSpace=wrap;html=1;backgroundOutline=1;" vertex="1" parent="5dr3lmMBL9AklAWz7nSf-45">
          <mxGeometry x="40" y="40" width="520" height="40" as="geometry" />
        </mxCell>
        <mxCell id="5dr3lmMBL9AklAWz7nSf-47" value="CpeGameManager.StartGame()" style="shape=process;whiteSpace=wrap;html=1;backgroundOutline=1;" vertex="1" parent="5dr3lmMBL9AklAWz7nSf-45">
          <mxGeometry x="40" y="90" width="520" height="40" as="geometry" />
        </mxCell>
        <mxCell id="5dr3lmMBL9AklAWz7nSf-48" value="" style="shape=curlyBracket;whiteSpace=wrap;html=1;rounded=1;labelPosition=left;verticalLabelPosition=middle;align=right;verticalAlign=middle;" vertex="1" parent="1">
          <mxGeometry x="320" y="60" width="150" height="270" as="geometry" />
        </mxCell>
        <mxCell id="5dr3lmMBL9AklAWz7nSf-49" value="Jeu/Demo utilisant &lt;br&gt;le PepperEngine" style="text;strokeColor=none;fillColor=none;html=1;fontSize=24;fontStyle=1;verticalAlign=middle;align=center;" vertex="1" parent="1">
          <mxGeometry x="170" y="140" width="220" height="110" as="geometry" />
        </mxCell>
      </root>
    </mxGraphModel>
  </diagram>
  <diagram id="CKrrRniGK2lkD1jXG_Mo" name="PhysicsManager">
    <mxGraphModel dx="1385" dy="521" grid="1" gridSize="10" guides="1" tooltips="1" connect="1" arrows="1" fold="1" page="0" pageScale="1" pageWidth="827" pageHeight="1169" math="0" shadow="0">
      <root>
        <mxCell id="0" />
        <mxCell id="1" parent="0" />
        <mxCell id="aLvWDh0sxkaGPguxrDu--5" value="CPePhysicsManager" style="swimlane;fontStyle=1;align=center;verticalAlign=top;childLayout=stackLayout;horizontal=1;startSize=26;horizontalStack=0;resizeParent=1;resizeParentMax=0;resizeLast=0;collapsible=1;marginBottom=0;whiteSpace=wrap;html=1;" vertex="1" parent="1">
          <mxGeometry x="-190" y="160" width="250" height="112" as="geometry" />
        </mxCell>
        <mxCell id="aLvWDh0sxkaGPguxrDu--6" value="+ m_particles: Vector&amp;lt;CPeParticle*&amp;gt;" style="text;strokeColor=none;fillColor=none;align=left;verticalAlign=top;spacingLeft=4;spacingRight=4;overflow=hidden;rotatable=0;points=[[0,0.5],[1,0.5]];portConstraint=eastwest;whiteSpace=wrap;html=1;" vertex="1" parent="aLvWDh0sxkaGPguxrDu--5">
          <mxGeometry y="26" width="250" height="26" as="geometry" />
        </mxCell>
        <mxCell id="aLvWDh0sxkaGPguxrDu--7" value="" style="line;strokeWidth=1;fillColor=none;align=left;verticalAlign=middle;spacingTop=-1;spacingLeft=3;spacingRight=3;rotatable=0;labelPosition=right;points=[];portConstraint=eastwest;strokeColor=inherit;" vertex="1" parent="aLvWDh0sxkaGPguxrDu--5">
          <mxGeometry y="52" width="250" height="8" as="geometry" />
        </mxCell>
        <mxCell id="aLvWDh0sxkaGPguxrDu--8" value="+ PhysicsUpdate():&amp;nbsp;" style="text;strokeColor=none;fillColor=none;align=left;verticalAlign=top;spacingLeft=4;spacingRight=4;overflow=hidden;rotatable=0;points=[[0,0.5],[1,0.5]];portConstraint=eastwest;whiteSpace=wrap;html=1;" vertex="1" parent="aLvWDh0sxkaGPguxrDu--5">
          <mxGeometry y="60" width="250" height="26" as="geometry" />
        </mxCell>
        <mxCell id="aLvWDh0sxkaGPguxrDu--9" value="+ RegisterParticle(CPeParticle*)&lt;br&gt;):&amp;nbsp;" style="text;strokeColor=none;fillColor=none;align=left;verticalAlign=top;spacingLeft=4;spacingRight=4;overflow=hidden;rotatable=0;points=[[0,0.5],[1,0.5]];portConstraint=eastwest;whiteSpace=wrap;html=1;" vertex="1" parent="aLvWDh0sxkaGPguxrDu--5">
          <mxGeometry y="86" width="250" height="26" as="geometry" />
        </mxCell>
        <mxCell id="aLvWDh0sxkaGPguxrDu--10" value="CPeParticle" style="swimlane;fontStyle=1;align=center;verticalAlign=top;childLayout=stackLayout;horizontal=1;startSize=26;horizontalStack=0;resizeParent=1;resizeParentMax=0;resizeLast=0;collapsible=1;marginBottom=0;whiteSpace=wrap;html=1;" vertex="1" parent="1">
          <mxGeometry x="300" y="186" width="160" height="86" as="geometry" />
        </mxCell>
        <mxCell id="aLvWDh0sxkaGPguxrDu--11" value="+ field: type" style="text;strokeColor=none;fillColor=none;align=left;verticalAlign=top;spacingLeft=4;spacingRight=4;overflow=hidden;rotatable=0;points=[[0,0.5],[1,0.5]];portConstraint=eastwest;whiteSpace=wrap;html=1;" vertex="1" parent="aLvWDh0sxkaGPguxrDu--10">
          <mxGeometry y="26" width="160" height="26" as="geometry" />
        </mxCell>
        <mxCell id="aLvWDh0sxkaGPguxrDu--12" value="" style="line;strokeWidth=1;fillColor=none;align=left;verticalAlign=middle;spacingTop=-1;spacingLeft=3;spacingRight=3;rotatable=0;labelPosition=right;points=[];portConstraint=eastwest;strokeColor=inherit;" vertex="1" parent="aLvWDh0sxkaGPguxrDu--10">
          <mxGeometry y="52" width="160" height="8" as="geometry" />
        </mxCell>
        <mxCell id="aLvWDh0sxkaGPguxrDu--13" value="+ method(type): type" style="text;strokeColor=none;fillColor=none;align=left;verticalAlign=top;spacingLeft=4;spacingRight=4;overflow=hidden;rotatable=0;points=[[0,0.5],[1,0.5]];portConstraint=eastwest;whiteSpace=wrap;html=1;" vertex="1" parent="aLvWDh0sxkaGPguxrDu--10">
          <mxGeometry y="60" width="160" height="26" as="geometry" />
        </mxCell>
        <mxCell id="aLvWDh0sxkaGPguxrDu--14" value="CPeParticle()" style="swimlane;whiteSpace=wrap;html=1;" vertex="1" parent="1">
          <mxGeometry x="140" y="310" width="460" height="100" as="geometry" />
        </mxCell>
        <mxCell id="aLvWDh0sxkaGPguxrDu--15" value="CPePhysicsManager.GetInstance().RegisterParticle(this)" style="shape=process;whiteSpace=wrap;html=1;backgroundOutline=1;" vertex="1" parent="aLvWDh0sxkaGPguxrDu--14">
          <mxGeometry x="30" y="40" width="400" height="30" as="geometry" />
        </mxCell>
        <mxCell id="aLvWDh0sxkaGPguxrDu--18" style="edgeStyle=orthogonalEdgeStyle;rounded=0;orthogonalLoop=1;jettySize=auto;html=1;strokeColor=#FF0000;endArrow=oval;endFill=1;" edge="1" parent="1" source="aLvWDh0sxkaGPguxrDu--6" target="aLvWDh0sxkaGPguxrDu--10">
          <mxGeometry relative="1" as="geometry">
            <Array as="points">
              <mxPoint x="120" y="200" />
              <mxPoint x="120" y="200" />
            </Array>
          </mxGeometry>
        </mxCell>
      </root>
    </mxGraphModel>
  </diagram>
</mxfile>
